# xmcd
#
# Track frame offsets:
#  150
#  16929
#  28671
#  39300
#  51520
#  68948
#  81583
#  97316
#  114142
#  129870
#  146308
#  170472
#  183436
#  203796
#  225960
#  246386
#
# Disc length: 3441 seconds
#
# Revision: 0
# Processed by: cddbd v1.5.1PL2 Copyright (c) Steve Scherf et al.
# Submitted via: Collectorz.com_Music_Collector 6.9
#
DISCID=d60d6f10
DTITLE=Various Artist - Soul Train [CD5]
DYEAR=1900
DGENRE=Soul
TTITLE0=Solomon Burke - Hold On
TTITLE1=Wilson Pickett - If You Need Me
TTITLE2=The Esquires - Get On Up
TTITLE3=The Three Degrees - When Will I See You Again
TTITLE4=Ike Turner - Tina Turner - River deep, Mountain high
TTITLE5=The Tymes - You Little Trustmaker
TTITLE6=The Trammps - Hold Back The Night
TTITLE7=Odyssey - Native New Yorker
TTITLE8=Barry White - The Love Unlimited Orchestra - Your Heart And Soul
TTITLE9=Al Jarreau - Use Me (Till You Use Me Up)
TTITLE10=Rufus Thomas - Push And Pull
TTITLE11=The Tams - Better To Have Loved A Little
TTITLE12=ZZ Hill - Faithful and True
TTITLE13=Barbare Mason - Oh How It Hurts
TTITLE14=Carol Douglas - Doctors Orders
TTITLE15=Eddie Floyd - Things Get Better
EXTD=
EXTT0=
EXTT1=
EXTT2=
EXTT3=
EXTT4=
EXTT5=
EXTT6=
EXTT7=
EXTT8=
EXTT9=
EXTT10=
EXTT11=
EXTT12=
EXTT13=
EXTT14=
EXTT15=
PLAYORDER=
